<svg xmlns="http://www.w3.org/2000/svg" width="1440" height="773" fill="none"><path fill="#EDFBFF" d="M0 773h1440V20.864H0z"/><rect width="38.829" height="38.829" fill="url(#a)" rx="3" transform="matrix(.692 .7219 -.692 .7219 974.87 591.486)"/><rect width="17.371" height="17.371" fill="url(#b)" rx="1" transform="matrix(.692 .7219 -.692 .7219 516.021 372.96)"/><path stroke="url(#c)" stroke-width="10" d="M1334.61 304.546c1.35-.929 3.17.169 3.08 1.854l-1.66 28.707c-.08 1.498-1.66 2.356-2.93 1.593l-21.35-12.862c-1.27-.763-1.35-2.619-.15-3.446l23.01-15.846Z" clip-rule="evenodd" opacity=".543"/><path stroke="url(#d)" stroke-width="10" d="M845.161 180.182c3.375-2.325 7.936.422 7.694 4.634l-2.489 43.244c-.215 3.746-4.164 5.89-7.332 3.981l-32.168-19.374c-3.169-1.908-3.363-6.548-.362-8.615l34.657-23.87Z" clip-rule="evenodd" opacity=".543"/><path fill="url(#e)" fill-rule="evenodd" d="M0 446.483s58.428-144.934 170.692-104.31c112.265 40.625 152.14 95.562 212.589 0 15.673-24.777 9.866-77.728-29.278-79.831-39.144-2.103-9.251-48.316 58.144-57.382 67.395-9.067-18.096-73.088-69.395-91.694-53.275-19.322 15.159-70.188 20.444-89.613 12.87-47.306-363.196 0-363.196 0v422.83Z" clip-rule="evenodd"/><path fill="url(#f)" fill-rule="evenodd" d="M1440 769.87s-131.25-1.604-193.55-63.085c-62.31-61.48-61.8-194.436-194.64-187.167-132.844 7.268-274.803-22.468-224.401-106.219 50.402-83.75 168.127-73.369 196.261-209.88 28.14-136.51-202.233 28.338-240.283-62.433-14.858-35.447 20.409-40.226-34.273-80.105-18.153-13.24-26.931-32.423-23.312-39.88 1.744-3.593 7.924 1.647 14.369 0 20.467-5.229 63.762 0 107.642 0H1440V769.87Z" clip-rule="evenodd"/><path fill="url(#g)" fill-rule="evenodd" d="M520.396 640.928c8.7-1.867 11.409 7.978 27.275 7.978 15.866 0 29.975-9.298 49.611-1.1 19.635 8.199 35.522 33.036 15.405 28.247-11.882-2.829-26.578-11.453-46.816 4.966-20.239 16.419-32.349-14.933-47.511-10.121-15.163 4.812-6.735-28.089 2.036-29.97Z" clip-rule="evenodd"/><defs><linearGradient id="a" x1="68.565" x2="34.772" y1="33.234" y2="2.518" gradientUnits="userSpaceOnUse"><stop stop-color="#fff" stop-opacity=".01"/><stop offset="1" stop-color="#C9F0FF"/></linearGradient><linearGradient id="b" x1="-53.567" x2="-7.041" y1="-15.726" y2="35.545" gradientUnits="userSpaceOnUse"><stop stop-color="#fff" stop-opacity=".01"/><stop offset="1" stop-color="#DEF5FE"/></linearGradient><linearGradient id="c" x1="1185.56" x2="1341.24" y1="413.981" y2="401.121" gradientUnits="userSpaceOnUse"><stop stop-color="#fff" stop-opacity=".01"/><stop offset="1" stop-color="#C9F0FF"/></linearGradient><linearGradient id="d" x1="747.648" x2="848.462" y1="257.384" y2="255.558" gradientUnits="userSpaceOnUse"><stop stop-color="#fff" stop-opacity=".01"/><stop offset="1" stop-color="#C9F0FF"/></linearGradient><linearGradient id="e" x1="-320.118" x2="290.249" y1="276.659" y2="740.662" gradientUnits="userSpaceOnUse"><stop stop-color="#fff" stop-opacity=".01"/><stop offset="1" stop-color="#C9F0FF"/></linearGradient><linearGradient id="f" x1="1280.14" x2="395.015" y1="-431.637" y2="162.626" gradientUnits="userSpaceOnUse"><stop stop-color="#fff" stop-opacity=".01"/><stop offset="1" stop-color="#C9F0FF"/></linearGradient><linearGradient id="g" x1="443.83" x2="633.144" y1="726.768" y2="602.353" gradientUnits="userSpaceOnUse"><stop stop-color="#fff" stop-opacity=".01"/><stop offset="1" stop-color="#C9F0FF"/></linearGradient></defs></svg>